<svg width="18" height="19" viewBox="0 0 18 19" fill="none" xmlns="http://www.w3.org/2000/svg">
<g clip-path="url(#clip0_214_39387)">
<path d="M18 14.4707C18 15.0011 17.7893 15.5098 17.4142 15.8849C17.0391 16.26 16.5304 16.4707 16 16.4707H2C1.46957 16.4707 0.960859 16.26 0.585786 15.8849C0.210714 15.5098 0 15.0011 0 14.4707V12.4707H18V14.4707Z" fill="#CE2028"/>
<path d="M0 7.4707H18V12.4707H0V7.4707Z" fill="#22408C"/>
<path d="M16 3.4707H2C1.46957 3.4707 0.960859 3.68142 0.585786 4.05649C0.210714 4.43156 0 4.94027 0 5.4707L0 7.4707H18V5.4707C18 4.94027 17.7893 4.43156 17.4142 4.05649C17.0391 3.68142 16.5304 3.4707 16 3.4707Z" fill="#EEEEEE"/>
</g>
<defs>
<clipPath id="clip0_214_39387">
<rect width="18" height="18" fill="white" transform="translate(0 0.970703)"/>
</clipPath>
</defs>
</svg>